<svg width="9358" height="2661" viewBox="0 0 9358 2661" fill="none" xmlns="http://www.w3.org/2000/svg">
<path d="M2094 1051.16H2453.57C2448.17 1153.84 2444.58 1416.86 2444.58 1723.11C2444.58 1851.02 2444.58 1986.13 2446.38 2090.62C2595.6 2090.62 2805.94 2090.62 2976.74 2085.21C2976.74 2137.46 2974.94 2189.7 2974.94 2243.74C2974.94 2297.79 2976.74 2350.03 2976.74 2402.27H2094C2094 2290.58 2099.39 2014.95 2099.39 1726.72C2099.39 1406.05 2099.39 1179.06 2094 1051.16Z" fill="url(#paint0_radial_202_65)"/>
<path d="M3879.26 1310.57H4215.46C4210.07 1461.9 4210.07 1595.21 4210.07 1847.42C4210.07 2081.61 4210.07 2250.95 4215.46 2402.27H3877.47C3879.26 2335.62 3881.06 2288.78 3882.86 2229.33L3873.87 2227.53C3810.95 2360.84 3688.69 2418.49 3505.31 2418.49C3266.2 2418.49 3124.17 2299.59 3124.17 2034.77C3124.17 1869.03 3125.97 1784.36 3125.97 1679.88C3125.97 1544.76 3125.97 1427.67 3120.58 1310.57H3462.17C3456.77 1469.1 3454.98 1694.29 3454.98 1959.11C3454.98 2105.03 3507.11 2159.07 3640.15 2159.07C3774.99 2159.07 3882.86 2083.41 3882.86 1894.25C3882.86 1539.36 3881.06 1420.46 3879.26 1310.57Z" fill="url(#paint1_radial_202_65)"/>
<path d="M6153.4 2402.27H5835.18C5840.58 2243.74 5842.38 2016.76 5842.38 1744.73C5842.38 1625.83 5792.04 1569.99 5680.57 1569.99C5563.71 1569.99 5468.43 1633.04 5468.43 1802.38C5468.43 2119.44 5466.63 2270.77 5473.82 2402.27H5157.4C5162.79 2243.74 5164.59 2058.19 5164.59 1744.73C5164.59 1631.24 5119.65 1569.99 5004.58 1569.99C4887.72 1569.99 4792.44 1633.04 4792.44 1802.38C4792.44 2094.22 4792.44 2290.58 4796.03 2402.27H4476.02C4481.41 2247.35 4479.62 2092.42 4479.62 1863.63C4479.62 1627.63 4479.62 1469.1 4476.02 1310.57H4803.23C4801.43 1373.62 4799.63 1422.26 4794.24 1483.51L4805.02 1485.32C4867.95 1353.81 4974.02 1294.36 5130.43 1294.36C5281.45 1294.36 5410.89 1364.62 5446.85 1494.32L5461.23 1496.12C5525.96 1344.8 5657.2 1294.36 5810.01 1294.36C6011.37 1294.36 6151.6 1407.85 6151.6 1625.83C6151.6 1793.37 6148.01 1914.07 6148.01 2050.98C6148.01 2171.68 6149.81 2297.79 6153.4 2402.27Z" fill="url(#paint2_radial_202_65)"/>
<path fill-rule="evenodd" clip-rule="evenodd" d="M6403.86 2402.27H6736.46C6731.07 2232.93 6731.07 2092.42 6731.07 1845.61C6731.07 1629.43 6731.07 1479.91 6736.46 1310.57H6403.86L6404.19 1341.52C6405.88 1497.26 6407.46 1643.94 6407.46 1836.61C6407.46 2054.59 6407.46 2229.33 6403.86 2402.27Z" fill="url(#paint3_radial_202_65)"/>
<path d="M8097.35 2402.27H7757.56C7761.16 2249.15 7762.96 2032.97 7762.96 1775.36C7762.96 1625.83 7714.41 1568.18 7577.78 1568.18C7441.14 1568.18 7336.87 1640.24 7336.87 1825.8C7336.87 2173.49 7338.67 2294.19 7340.46 2402.27H7002.47C7007.86 2249.15 7007.86 2115.84 7007.86 1865.43C7007.86 1629.43 7006.07 1460.09 7002.47 1310.57H7342.26C7340.46 1377.23 7338.67 1424.06 7335.07 1483.51L7345.86 1487.12C7412.38 1352 7538.23 1294.36 7718.01 1294.36C7960.72 1294.36 8095.56 1407.85 8095.56 1701.49C8095.56 1856.42 8091.96 1933.89 8091.96 2031.17C8091.96 2168.08 8091.96 2283.38 8097.35 2402.27Z" fill="url(#paint4_radial_202_65)"/>
<path d="M8773.51 2186.1C8911.94 2186.1 9001.83 2101.43 9003.63 1964.51C8940.71 1955.5 8874.19 1953.7 8804.07 1953.7C8671.03 1953.7 8613.5 1991.53 8613.5 2074.4C8613.5 2150.07 8654.85 2186.1 8773.51 2186.1ZM9012.62 2222.13L9003.63 2220.32C8956.89 2355.44 8834.63 2420.29 8649.46 2420.29C8417.54 2420.29 8291.69 2341.02 8291.69 2121.24C8291.69 1896.06 8446.3 1800.58 8760.92 1800.58C8852.61 1800.58 8942.5 1804.18 9005.43 1813.19C9007.23 1782.56 9007.23 1751.94 9007.23 1723.11C9007.23 1620.43 8958.68 1562.78 8829.24 1562.78C8692.6 1562.78 8635.07 1615.02 8640.47 1739.33C8600.92 1737.52 8548.78 1737.52 8498.44 1737.52C8433.72 1737.52 8368.99 1737.52 8324.05 1744.73C8307.87 1485.32 8455.29 1290.75 8823.85 1290.75C9196 1290.75 9336.23 1458.29 9336.23 1714.1C9336.23 1851.02 9330.84 1950.1 9330.84 2079.81C9330.84 2204.11 9339.83 2353.63 9357.8 2402.27H9080.94C9021.61 2402.27 9009.02 2395.07 9009.02 2326.61C9009.02 2295.99 9010.82 2258.16 9012.62 2222.13Z" fill="url(#paint5_radial_202_65)"/>
<circle cx="1139" cy="1139" r="1139" transform="matrix(-1 0 0 1 7709 0)" fill="url(#paint6_radial_202_65)"/>
<g filter="url(#filter0_d_202_65)">
<path d="M913.135 962.23C939.324 812.05 1154.9 812.048 1181.09 962.23L1256.95 1397.26C1257.53 1400.58 1260.14 1403.18 1263.46 1403.76L1698.49 1479.62C1848.67 1505.81 1848.67 1721.39 1698.49 1747.58L1263.46 1823.44C1260.14 1824.02 1257.53 1826.63 1256.95 1829.95L1181.09 2264.98C1154.9 2415.16 939.325 2415.16 913.135 2264.98L837.272 1829.95C836.693 1826.63 834.09 1824.02 830.766 1823.44L395.74 1747.58C245.56 1721.39 245.558 1505.81 395.74 1479.62L830.766 1403.76C834.09 1403.18 836.693 1400.58 837.272 1397.26L913.135 962.23Z" stroke="#F42CFF" stroke-width="128" shape-rendering="crispEdges"/>
</g>
<g filter="url(#filter1_d_202_65)">
<path d="M1602.92 816.919C1607.35 771.865 1671.17 771.865 1675.61 816.92L1689.48 957.852C1691.22 975.611 1704.88 989.654 1722.14 991.451L1859.16 1005.72C1902.96 1010.28 1902.96 1075.92 1859.16 1080.49L1722.14 1094.75C1704.88 1096.55 1691.22 1110.59 1689.48 1128.35L1675.61 1269.28C1671.17 1314.34 1607.35 1314.34 1602.92 1269.28L1589.05 1128.35C1587.3 1110.59 1573.64 1096.55 1556.38 1094.75L1419.36 1080.49C1375.56 1075.92 1375.56 1010.28 1419.36 1005.72L1556.38 991.451C1573.64 989.654 1587.3 975.611 1589.05 957.852L1602.92 816.919Z" fill="#F42CFF"/>
</g>
<g filter="url(#filter2_d_202_65)">
<path d="M426.5 1963.5C517.509 1963.5 597.5 2031.19 597.5 2122C597.5 2212.81 517.509 2280.5 426.5 2280.5C335.491 2280.5 255.5 2212.81 255.5 2122C255.5 2031.19 335.491 1963.5 426.5 1963.5Z" stroke="#F42CFF" stroke-width="73" shape-rendering="crispEdges"/>
</g>
<defs>
<filter id="filter0_d_202_65" x="122.704" y="689.195" width="1848.82" height="1848.82" filterUnits="userSpaceOnUse" color-interpolation-filters="sRGB">
<feFlood flood-opacity="0" result="BackgroundImageFix"/>
<feColorMatrix in="SourceAlpha" type="matrix" values="0 0 0 0 0 0 0 0 0 0 0 0 0 0 0 0 0 0 127 0" result="hardAlpha"/>
<feOffset/>
<feGaussianBlur stdDeviation="48.2"/>
<feComposite in2="hardAlpha" operator="out"/>
<feColorMatrix type="matrix" values="0 0 0 0 0.958654 0 0 0 0 0.173077 0 0 0 0 1 0 0 0 1 0"/>
<feBlend mode="normal" in2="BackgroundImageFix" result="effect1_dropShadow_202_65"/>
<feBlend mode="normal" in="SourceGraphic" in2="effect1_dropShadow_202_65" result="shape"/>
</filter>
<filter id="filter1_d_202_65" x="1290.11" y="686.729" width="698.303" height="712.746" filterUnits="userSpaceOnUse" color-interpolation-filters="sRGB">
<feFlood flood-opacity="0" result="BackgroundImageFix"/>
<feColorMatrix in="SourceAlpha" type="matrix" values="0 0 0 0 0 0 0 0 0 0 0 0 0 0 0 0 0 0 127 0" result="hardAlpha"/>
<feOffset/>
<feGaussianBlur stdDeviation="48.2"/>
<feComposite in2="hardAlpha" operator="out"/>
<feColorMatrix type="matrix" values="0 0 0 0 0.958654 0 0 0 0 0.173077 0 0 0 0 1 0 0 0 1 0"/>
<feBlend mode="normal" in2="BackgroundImageFix" result="effect1_dropShadow_202_65"/>
<feBlend mode="normal" in="SourceGraphic" in2="effect1_dropShadow_202_65" result="shape"/>
</filter>
<filter id="filter2_d_202_65" x="122.6" y="1830.6" width="607.8" height="582.8" filterUnits="userSpaceOnUse" color-interpolation-filters="sRGB">
<feFlood flood-opacity="0" result="BackgroundImageFix"/>
<feColorMatrix in="SourceAlpha" type="matrix" values="0 0 0 0 0 0 0 0 0 0 0 0 0 0 0 0 0 0 127 0" result="hardAlpha"/>
<feOffset/>
<feGaussianBlur stdDeviation="48.2"/>
<feComposite in2="hardAlpha" operator="out"/>
<feColorMatrix type="matrix" values="0 0 0 0 0.958654 0 0 0 0 0.173077 0 0 0 0 1 0 0 0 1 0"/>
<feBlend mode="normal" in2="BackgroundImageFix" result="effect1_dropShadow_202_65"/>
<feBlend mode="normal" in="SourceGraphic" in2="effect1_dropShadow_202_65" result="shape"/>
</filter>
<radialGradient id="paint0_radial_202_65" cx="0" cy="0" r="1" gradientUnits="userSpaceOnUse" gradientTransform="translate(6577.14 1126.22) rotate(90) scale(1951.62 2822.14)">
<stop stop-color="white"/>
<stop offset="1" stop-color="white"/>
</radialGradient>
<radialGradient id="paint1_radial_202_65" cx="0" cy="0" r="1" gradientUnits="userSpaceOnUse" gradientTransform="translate(6577.14 1126.22) rotate(90) scale(1951.62 2822.14)">
<stop stop-color="white"/>
<stop offset="1" stop-color="white"/>
</radialGradient>
<radialGradient id="paint2_radial_202_65" cx="0" cy="0" r="1" gradientUnits="userSpaceOnUse" gradientTransform="translate(6577.14 1126.22) rotate(90) scale(1951.62 2822.14)">
<stop stop-color="white"/>
<stop offset="1" stop-color="white"/>
</radialGradient>
<radialGradient id="paint3_radial_202_65" cx="0" cy="0" r="1" gradientUnits="userSpaceOnUse" gradientTransform="translate(6577.14 1126.22) rotate(90) scale(1951.62 2822.14)">
<stop stop-color="white"/>
<stop offset="1" stop-color="white"/>
</radialGradient>
<radialGradient id="paint4_radial_202_65" cx="0" cy="0" r="1" gradientUnits="userSpaceOnUse" gradientTransform="translate(6577.14 1126.22) rotate(90) scale(1951.62 2822.14)">
<stop stop-color="white"/>
<stop offset="1" stop-color="white"/>
</radialGradient>
<radialGradient id="paint5_radial_202_65" cx="0" cy="0" r="1" gradientUnits="userSpaceOnUse" gradientTransform="translate(6577.14 1126.22) rotate(90) scale(1951.62 2822.14)">
<stop stop-color="white"/>
<stop offset="1" stop-color="white"/>
</radialGradient>
<radialGradient id="paint6_radial_202_65" cx="0" cy="0" r="1" gradientUnits="userSpaceOnUse" gradientTransform="translate(1139 1139) rotate(90) scale(1090.68)">
<stop stop-color="#F42CFF"/>
<stop offset="1" stop-color="#737373" stop-opacity="0"/>
</radialGradient>
</defs>
</svg>
